<svg xmlns="http://www.w3.org/2000/svg" viewBox="0 0 87 94"><g fill="#882C80"><path d="M86.2 31.2c-.5-4.8-4.1-11.1-7.9-14 0 0-5.8-4.3-13-8.5C58 4.4 51.4 1.5 51.4 1.5c-2.1-1-5-1.5-7.9-1.5-2.9 0-5.8.5-7.9 1.5 0 0-6.5 2.9-13.8 7.2-7.2 4.3-13 8.5-13 8.5-3.9 2.9-7.4 9.2-7.9 14 0 0-.8 7.2-.8 15.8 0 8.5.8 15.8.8 15.8.5 4.8 4.1 11.1 7.9 14 0 0 5.8 4.3 13 8.6s13.8 7.2 13.8 7.2c2.2 1 5.1 1.5 7.9 1.5s5.8-.5 7.9-1.5c0 0 6.5-2.9 13.8-7.2 7.2-4.3 13-8.6 13-8.6 3.9-2.9 7.4-9.2 7.9-14 0 0 .8-7.2.8-15.8.1-8.5-.7-15.8-.7-15.8zm-4 30.9c-.4 3.8-3.4 9-6.3 11.2-.1 0-5.7 4.2-12.6 8.3-6.9 4.1-13.3 7-13.4 7-1.6.7-3.9 1.1-6.3 1.1s-4.7-.4-6.3-1.1c-.1 0-6.4-2.9-13.4-7-6.9-3.9-12.5-8.1-12.6-8.2-3.1-2.2-6.1-7.4-6.5-11.2 0-.1-.7-7.1-.7-15.3s.7-15.3.7-15.3c.4-3.8 3.4-9 6.3-11.2.1 0 5.7-4.2 12.6-8.3 6.9-4.1 13.3-7 13.4-7 1.7-.7 4-1.1 6.4-1.1 2.4 0 4.7.4 6.3 1.1.1 0 6.4 2.9 13.4 7 6.9 4.1 12.6 8.3 12.6 8.3 3 2.2 5.9 7.5 6.3 11.2 0 .1.7 7.1.7 15.3.1 8.1-.6 15.2-.6 15.2z"/><path d="M62.1 21.2H25c-1.1 0-2 .9-2 2v47.5c0 1.1.9 2 2 2h37.2c1.1 0 2-.9 2-2V23.2c-.1-1.1-1-2-2.1-2zm-7.6 32.9c-1.1 0-2 .9-2 2v.5h-3v-.5c0-1.1-.9-2-2-2s-2 .9-2 2v.5H34.6v-.5c0-1.1-.9-2-2-2s-2 .9-2 2v.5H27v-8h3.6v.5c0 1.1.9 2 2 2s2-.9 2-2v-.5h1.9v.5c0 1.1.9 2 2 2s2-.9 2-2v-.5h12v.5c0 1.1.9 2 2 2s2-.9 2-2v-.5h3.6v8h-3.6v-.5c0-1.1-.9-2-2-2zM32.6 38.2c1.1 0 2-.9 2-2v-.5h1.9v.5c0 1.1.9 2 2 2s2-.9 2-2v-.5h2v.5c0 1.1.9 2 2 2s2-.9 2-2v-.5h13.6v9h-3.6v-.5c0-1.1-.9-2-2-2s-2 .9-2 2v.5h-12v-.5c0-1.1-.9-2-2-2s-2 .9-2 2v.5h-1.9v-.5c0-1.1-.9-2-2-2s-2 .9-2 2v.5H27v-9h3.6v.5c0 1.1.9 2 2 2zm27.5-13v6.5H46.5v-.5c0-1.1-.9-2-2-2s-2 .9-2 2v.5h-2v-.5c0-1.1-.9-2-2-2s-2 .9-2 2v.5h-1.9v-.5c0-1.1-.9-2-2-2s-2 .9-2 2v.5H27v-6.5h33.1zM27 68.6v-8h3.6v.5c0 1.1.9 2 2 2s2-.9 2-2v-.5h10.9v.5c0 1.1.9 2 2 2s2-.9 2-2v-.5h3v.5c0 1.1.9 2 2 2s2-.9 2-2v-.5h3.6v8H27z"/></g></svg>